<svg width="51" height="42" viewBox="0 0 51 42" fill="none" xmlns="http://www.w3.org/2000/svg">
<path fill-rule="evenodd" clip-rule="evenodd" d="M24.0446 37.4205L24.0429 37.4226C21.6046 40.507 18.1871 42 14.0594 42C9.85086 42 6.35388 40.3421 3.75256 37.074L3.74874 37.0692C1.08335 33.7002 0 28.1243 0 20.9368C0 13.8156 1.21507 8.20583 4.07419 4.57948L4.07586 4.57736C6.51417 1.49304 9.93163 0 14.0594 0C18.1963 0 21.6192 1.51661 24.0692 4.62931C26.916 8.22726 28.1187 13.8522 28.1187 21.0126C28.1187 28.1647 26.9047 33.7929 24.0446 37.4205ZM13.0679 10.4063L13.0558 10.416C12.8986 10.5422 12.5285 11.0011 12.2008 12.2567L12.1988 12.2644C11.787 13.8176 11.5374 16.6725 11.5374 21.0126C11.5374 25.3749 11.7643 28.1113 12.1215 29.4512C12.5304 30.9649 12.9336 31.5019 13.0691 31.6199C13.3725 31.8594 13.6792 31.9645 14.0594 31.9645C14.4391 31.9645 14.7455 31.8597 15.0484 31.6208C15.2312 31.4633 15.5969 30.9734 15.9179 29.7433L15.9211 29.731C16.3314 28.1978 16.5814 25.3546 16.5814 21.0126C16.5814 16.6455 16.3538 13.9207 15.9979 12.6021L15.9965 12.5969C15.5814 11.0428 15.1654 10.5185 15.0377 10.416L15.0156 10.3982L14.9939 10.3798C14.7107 10.1393 14.427 10.0355 14.0594 10.0355C13.6907 10.0355 13.3889 10.1406 13.0799 10.3963L13.0679 10.4063ZM16.3525 33.2269C15.6805 33.7664 14.9162 34.0362 14.0594 34.0362C13.2026 34.0362 12.4382 33.7664 11.7662 33.2269C11.111 32.6875 10.565 31.6085 10.1282 29.99C9.69144 28.3547 9.47304 25.3623 9.47304 21.0126C9.47304 16.663 9.71664 13.5694 10.2038 11.7318C10.5734 10.3156 11.0942 9.33783 11.7662 8.79834C12.4382 8.242 13.2026 7.96383 14.0594 7.96383C14.9162 7.96383 15.6721 8.242 16.3273 8.79834C16.9993 9.33783 17.5537 10.4252 17.9905 12.0605C18.4273 13.679 18.6457 16.663 18.6457 21.0126C18.6457 25.3623 18.4021 28.4474 17.9149 30.2682C17.5453 31.6844 17.0245 32.6706 16.3525 33.2269ZM51 41.3678H39.7902V16.7728C37.8267 18.0672 35.6792 19.0991 33.3543 19.8694L30.6427 20.7677V9.95186L32.065 9.48476C33.6153 8.97558 35.4119 7.97378 37.4609 6.38037C39.3665 4.88222 40.5911 3.20981 41.2467 1.37302L41.7368 0H51V41.3678ZM38.7298 8.0144C36.5626 9.7003 34.5551 10.8467 32.7071 11.4536V17.9022C33.4139 17.668 34.1021 17.4082 34.7714 17.1228C36.5812 16.3511 38.2541 15.3921 39.7902 14.2459C40.5082 13.7101 41.1963 13.1334 41.8546 12.5157V39.2962H48.9356V2.07163H43.1901C42.3837 4.33072 40.897 6.31165 38.7298 8.0144ZM22.4508 5.91546C20.4349 3.35291 17.6377 2.07163 14.0594 2.07163C10.481 2.07163 7.69227 3.33605 5.6931 5.86489C3.27393 8.93322 2.06435 13.9572 2.06435 20.9368C2.06435 28.0513 3.16474 32.9994 5.3655 35.7811C7.56627 38.5459 10.4642 39.9284 14.0594 39.9284C17.6377 39.9284 20.4265 38.664 22.4256 36.1351C24.8448 33.0668 26.0544 28.026 26.0544 21.0126C26.0544 13.9825 24.8532 8.95007 22.4508 5.91546Z" fill="white"/>
</svg>
