<svg width="138" height="102" viewBox="0 0 138 102" fill="none" xmlns="http://www.w3.org/2000/svg">
<path d="M10.4904 87.9849L10.4922 87.9876C16.0592 96.2893 25.4533 101 36.0984 101C46.616 101 56.0072 96.2894 61.5734 87.9927C67.8516 78.8871 71.0691 66.2271 71.0691 51.5C71.0691 36.7677 67.8494 24.1095 61.5732 14.8801L61.5727 14.8793C56.0068 6.71098 46.6167 2 36.0984 2C25.4547 2 16.0635 6.70915 10.4964 14.8793L10.4964 14.8793L10.4922 14.8855C4.22126 24.237 1 36.7637 1 51.5C1 65.9867 4.3508 78.7643 10.4904 87.9849ZM48.1884 17.5711L48.1884 17.5711L48.1925 17.5818C50.9306 24.6346 52.2114 35.0132 52.2114 51.5C52.2114 66.4654 51.187 76.4868 48.9411 83.309L48.9411 83.309L48.9375 83.3203C47.5602 87.6772 45.8079 90.8042 43.6912 92.835C41.6017 94.8397 39.1068 95.8259 36.0984 95.8259C33.3897 95.8259 31.0668 94.9843 29.0826 93.3017C27.08 91.6037 25.373 89.0056 24.0064 85.4236L24.0043 85.4182C21.2665 78.3662 19.9853 67.6077 19.9853 51.5C19.9853 35.7772 21.2974 24.5995 24.0235 17.3828C25.3821 13.7862 27.067 11.2419 29.0516 9.59864C31.0176 7.97079 33.3407 7.17408 36.0984 7.17408C38.8829 7.17408 41.2028 7.99131 43.1626 9.65104C45.1434 11.3285 46.8194 13.921 48.1884 17.5711ZM92.4728 97.9686V98.9686H93.4728H136H137V97.9686V94.4136V93.4329L136.019 93.4138C132.749 93.35 130.817 93.2543 129.487 93.0166C128.227 92.7914 127.548 92.4465 126.782 91.848L126.778 91.845C125.852 91.1287 125.184 90.1133 124.744 88.291C124.295 86.4295 124.101 83.8002 124.101 79.9398V35.1217C124.101 22.8252 124.484 12.1899 125.247 3.21166L125.358 1.91066L124.073 2.14291C115.678 3.66027 106.387 4.92602 94.2833 5.93934L93.3668 6.01608V6.93586V10.4908V11.4908H94.3668H97.8149C101.101 11.4908 102.953 11.6605 104.042 12.0882C104.546 12.2858 104.837 12.522 105.034 12.7934C105.242 13.0791 105.402 13.4808 105.515 14.0987L105.519 14.1179L105.523 14.137C105.529 14.1612 105.534 14.1847 105.539 14.2077C105.751 15.1521 105.757 15.1777 105.882 21.5467V79.9398C105.882 83.9943 105.656 86.7272 105.108 88.6115C104.579 90.4317 103.773 91.3892 102.591 92.0024L102.564 92.016L102.539 92.0312C100.884 93.0182 99.3646 93.286 93.4512 93.4138L92.4728 93.435V94.4136V97.9686Z" stroke="#007979" stroke-width="2"/>
</svg>
