<svg width="61" height="44" viewBox="0 0 61 44" fill="none" xmlns="http://www.w3.org/2000/svg">
<path fill-rule="evenodd" clip-rule="evenodd" d="M26.112 37.8145C23.4716 41.7224 19.6041 43.7617 15.035 43.7617C10.4449 43.7617 6.5636 41.7266 3.91432 37.8168C1.32897 34.0014 0 28.5391 0 21.7C0 14.8871 1.32879 9.50308 3.92819 5.7632C6.5949 1.92649 10.4815 0 15.035 0C19.5675 0 23.4402 1.93045 26.0982 5.76547C28.6894 9.50428 30.0183 14.8868 30.0183 21.7C30.0183 28.5394 28.6893 34.0002 26.112 37.8145ZM13.904 33.3639C14.2155 33.5774 14.5713 33.6867 15.035 33.6867C15.4984 33.6867 15.8482 33.5776 16.1524 33.3677C16.4731 33.1464 16.876 32.7199 17.2723 31.8772C18.0945 30.1288 18.7033 26.9889 18.7033 21.7C18.7033 16.4335 18.0932 13.3706 17.2817 11.691C16.8931 10.8868 16.5001 10.4878 16.1867 10.2807C15.8845 10.081 15.5243 9.97167 15.035 9.97167C14.5455 9.97167 14.1793 10.0812 13.8697 10.2843C13.5496 10.4944 13.1512 10.8966 12.758 11.7002C11.9373 13.3776 11.315 16.4378 11.315 21.7C11.315 26.9847 11.936 30.1219 12.7676 31.8681C13.1685 32.7101 13.5767 33.1396 13.904 33.3639ZM30.3719 43.0383V35.7085L31.0594 35.0925C36.2505 30.4411 40.2681 26.4108 42.9771 22.8668C45.7172 19.2822 46.9053 16.4665 46.9053 14.2083C46.9053 12.6404 46.4933 11.6404 45.9679 11.0551C45.4716 10.5021 44.6566 10.075 43.2886 10.075C41.388 10.075 39.6966 11.2709 37.7944 13.3732L36.3459 14.9743L29.1966 7.91334L30.5647 6.44468C32.4223 4.45046 34.3595 2.81865 36.6124 1.69592C38.8855 0.563124 41.3763 0 44.2703 0C48.306 0 51.8606 1.29894 54.4187 3.77095C56.9844 6.25037 58.3753 9.74457 58.3753 13.795C58.3753 17.8421 56.705 21.8421 54.2787 25.5931C52.7579 27.9442 50.8966 30.2639 48.8521 32.5167C49.1809 32.5049 49.4982 32.4983 49.7986 32.4983H60.1319V43.0383H30.3719ZM46.7833 34.7141C45.6621 34.8053 44.5236 34.9244 43.5469 35.03C44.3265 34.2678 45.0912 33.4978 45.8346 32.7216C51.7431 26.5528 56.3086 19.9904 56.3086 13.795C56.3086 6.665 51.4519 2.06667 44.2703 2.06667C39.7736 2.06667 36.5813 3.56288 33.5364 6.39002C33.4715 6.45028 33.4066 6.51114 33.3418 6.57261C32.9189 6.97396 32.4983 7.40101 32.0769 7.85333L36.2619 11.9867C36.7283 11.4712 37.2092 10.9762 37.7095 10.521C39.3156 9.05964 41.1219 8.00833 43.2886 8.00833C46.9569 8.00833 48.9719 10.385 48.9719 14.2083C48.9719 20.0983 42.8753 27.28 32.4386 36.6317V40.9717H58.0653V34.565H49.7986C48.9141 34.565 47.8567 34.6268 46.7833 34.7141ZM27.9517 21.7C27.9517 34.9267 22.785 41.695 15.035 41.695C7.23333 41.695 2.06667 34.9267 2.06667 21.7C2.06667 8.525 7.23333 2.06667 15.035 2.06667C22.785 2.06667 27.9517 8.525 27.9517 21.7ZM9.24833 21.7C9.24833 32.4467 11.7283 35.7533 15.035 35.7533C18.3417 35.7533 20.77 32.4467 20.77 21.7C20.77 11.005 18.3417 7.905 15.035 7.905C11.7283 7.905 9.24833 11.005 9.24833 21.7Z" fill="white"/>
</svg>
