<svg width="149" height="102" viewBox="0 0 149 102" fill="none" xmlns="http://www.w3.org/2000/svg">
<path d="M10.4065 87.8652L10.4083 87.8679C15.9262 96.2419 25.2431 101 35.8076 101C46.2455 101 55.5594 96.2422 61.0766 87.8737C67.2995 78.6892 70.4887 65.9199 70.4887 51.0641C70.4887 36.2035 67.2975 23.4361 61.0768 14.1268L61.0763 14.126C55.5594 5.88649 46.2464 1.12811 35.8076 1.12811C25.2447 1.12811 15.9305 5.88462 10.4124 14.126L10.4123 14.126L10.4083 14.1321C4.19273 23.5647 1 36.1995 1 51.0641C1 65.6767 4.32113 78.5646 10.4065 87.8652ZM47.7846 16.8216L47.7846 16.8217L47.7886 16.8323C50.5049 23.9525 51.7748 34.4284 51.7748 51.0641C51.7748 66.1646 50.7591 76.2794 48.5312 83.1667L48.5311 83.1667L48.5277 83.1778C47.1612 87.5766 45.4228 90.7336 43.3235 92.7832C41.2523 94.8054 38.7829 95.7974 35.8076 95.7974C33.1288 95.7974 30.8299 94.9507 28.8637 93.254C26.8783 91.5407 25.1847 88.9181 23.8287 85.3012L23.8267 85.2958C21.1107 78.1764 19.8405 67.3172 19.8405 51.0641C19.8405 35.1992 21.1414 23.9172 23.8457 16.6316C25.1937 12.9999 26.8655 10.4315 28.833 8.77362C30.7809 7.13231 33.0799 6.33072 35.8076 6.33072C38.5618 6.33072 40.8577 7.15291 42.7995 8.82645C44.7634 10.519 46.4263 13.136 47.7846 16.8216ZM141.568 98.9503H142.421L142.556 98.1085L146.987 70.4379L147.138 69.4954L146.204 69.3008L141.899 68.404L140.91 68.198L140.714 69.1891C139.581 74.9197 138.141 78.3534 135.894 80.3967C133.675 82.4144 130.478 83.2431 125.361 83.2431H90.1429C92.5146 77.734 94.7362 74.678 99.3173 70.5068L99.3225 70.5019C105.055 65.2067 108.764 62.6927 125.474 53.215L125.48 53.2119C131.963 49.482 136.9 45.8249 139.675 42.4831C143.634 37.8087 145.607 32.3248 145.607 25.6993C145.607 17.9864 142.635 11.7594 137.133 7.48723C131.662 3.24011 123.79 1 114.092 1C105.449 1 98.407 2.96065 92.5135 6.93563L92.5063 6.94055C85.5789 11.7011 81.5632 18.519 81.5632 25.8275C81.5632 28.3607 82.3768 30.3938 84.1773 31.7503C85.9197 33.0631 88.4276 33.617 91.5532 33.617C94.4272 33.617 96.6885 33.095 98.2583 31.7199C99.8484 30.3269 100.523 28.2438 100.656 25.6219L100.656 25.6142L100.656 25.6065C100.909 18.4433 101.035 17.2784 102 14.2242C102.9 11.5591 104.251 9.60644 106.01 8.31453C107.769 7.02295 110.019 6.33072 112.825 6.33072C117.025 6.33072 120.473 8.02508 122.891 11.0049C125.324 14.0038 126.767 18.3748 126.767 23.7778C126.767 27.8508 125.916 31.543 124.211 35.1203C122.401 38.6556 119.733 41.7543 113.957 46.5817L113.954 46.5845C99.5049 58.7662 93.5841 64.8657 88.6879 72.4264L88.6857 72.4299C83.9063 79.879 81.3326 87.4576 80.0513 97.8277L79.9126 98.9503H81.0438H141.568Z" stroke="#007979" stroke-width="2"/>
</svg>
