<svg width="60" height="44" viewBox="0 0 60 44" fill="none" xmlns="http://www.w3.org/2000/svg">
<path fill-rule="evenodd" clip-rule="evenodd" d="M26.112 37.8145C23.4716 41.7224 19.6041 43.7617 15.035 43.7617C10.4449 43.7617 6.5636 41.7266 3.91432 37.8168C1.32897 34.0014 0 28.5391 0 21.7C0 14.8871 1.32879 9.50308 3.92819 5.7632C6.5949 1.92649 10.4815 0 15.035 0C19.5675 0 23.4402 1.93045 26.0982 5.76547C28.6894 9.50428 30.0183 14.8868 30.0183 21.7C30.0183 28.5394 28.6893 34.0002 26.112 37.8145ZM13.904 33.3639C14.2155 33.5774 14.5713 33.6867 15.035 33.6867C15.4984 33.6867 15.8482 33.5776 16.1524 33.3677C16.4731 33.1464 16.876 32.7199 17.2723 31.8772C18.0945 30.1288 18.7033 26.9889 18.7033 21.7C18.7033 16.4335 18.0932 13.3706 17.2817 11.691C16.8931 10.8868 16.5001 10.4878 16.1867 10.2807C15.8845 10.081 15.5243 9.97167 15.035 9.97167C14.5455 9.97167 14.1793 10.0812 13.8697 10.2843C13.5496 10.4944 13.1512 10.8966 12.758 11.7002C11.9373 13.3776 11.315 16.4378 11.315 21.7C11.315 26.9847 11.936 30.1219 12.7676 31.8681C13.1685 32.7101 13.5767 33.1396 13.904 33.3639ZM34.3686 5.43279C37.2514 3.34165 40.436 2.06667 44.1669 2.06667C51.5553 2.06667 56.5669 5.68333 56.5669 12.245C56.5669 15.4926 55.1278 18.086 52.4836 19.7911C51.8271 20.2144 51.0963 20.583 50.2948 20.8932C50.2673 20.9039 50.2396 20.9145 50.2119 20.925V21.1833C50.2488 21.1939 50.2855 21.2045 50.3222 21.2153C51.1205 21.4503 51.8829 21.7506 52.5951 22.116C55.7061 23.7124 57.8586 26.5531 57.8586 30.6383C57.8586 37.665 51.7103 41.695 44.3736 41.695C38.3286 41.695 34.2469 39.4733 31.5603 36.3733L35.1769 31.5683C35.672 32.0521 36.1891 32.5139 36.7309 32.9403C38.6772 34.4718 40.9424 35.5467 43.6503 35.5467C47.5769 35.5467 50.2119 33.5833 50.2119 30.1733C50.2119 26.4017 47.9903 24.0767 39.6719 24.0767V18.6C46.6986 18.6 48.9719 16.2233 48.9719 12.8133C48.9719 9.81666 47.1119 8.00833 43.8569 8.00833C41.7531 8.00833 39.9542 8.77077 38.2026 10.0847C37.6743 10.481 37.1503 10.9275 36.6236 11.4183L32.7486 6.71667C33.0309 6.47403 33.3159 6.23892 33.6038 6.01184C33.8564 5.81254 34.1113 5.61942 34.3686 5.43279ZM54.5469 20.855C57.6973 22.8331 59.9253 26.0901 59.9253 30.6383C59.9253 34.8258 58.0638 38.1834 55.1266 40.4404C52.2384 42.6597 48.3961 43.7617 44.3736 43.7617C37.755 43.7617 33.0943 41.2989 29.9985 37.7269L28.9047 36.4648L34.9398 28.4469L36.6214 30.0903C38.7104 32.1318 40.9568 33.48 43.6503 33.48C45.295 33.48 46.4333 33.0668 47.1148 32.5232C47.7405 32.024 48.1453 31.292 48.1453 30.1733C48.1453 28.7515 47.7696 27.9942 46.923 27.4355C45.8546 26.7305 43.7363 26.1433 39.6719 26.1433H37.6053V16.5333H39.6719C43.0234 16.5333 44.8348 15.9533 45.7657 15.2966C46.549 14.7441 46.9053 14 46.9053 12.8133C46.9053 11.7506 46.5867 11.1411 46.2131 10.7868C45.8253 10.4191 45.1116 10.075 43.8569 10.075C41.869 10.075 40.1308 10.9751 38.0325 12.9303L36.4256 14.4276L29.8662 6.46878L31.4016 5.14927C34.9654 2.08661 39.0936 0 44.1669 0C48.1698 0 51.7726 0.97711 54.421 3.07533C57.1301 5.22176 58.6336 8.38294 58.6336 12.245C58.6336 14.6863 57.9473 16.907 56.5848 18.7591C56.0072 19.5442 55.3231 20.2428 54.5469 20.855ZM27.9517 21.7C27.9517 34.9267 22.785 41.695 15.035 41.695C7.23333 41.695 2.06667 34.9267 2.06667 21.7C2.06667 8.525 7.23333 2.06667 15.035 2.06667C22.785 2.06667 27.9517 8.525 27.9517 21.7ZM9.24833 21.7C9.24833 32.4467 11.7283 35.7533 15.035 35.7533C18.3417 35.7533 20.77 32.4467 20.77 21.7C20.77 11.005 18.3417 7.905 15.035 7.905C11.7283 7.905 9.24833 11.005 9.24833 21.7Z" fill="white"/>
</svg>
