<svg width="62" height="44" viewBox="0 0 62 44" fill="none" xmlns="http://www.w3.org/2000/svg">
<path fill-rule="evenodd" clip-rule="evenodd" d="M26.112 37.8145C23.4716 41.7224 19.6041 43.7617 15.035 43.7617C10.4449 43.7617 6.5636 41.7266 3.91432 37.8168C1.32897 34.0014 0 28.5391 0 21.7C0 14.8871 1.32879 9.50308 3.92819 5.7632C6.5949 1.92649 10.4815 0 15.035 0C19.5675 0 23.4402 1.93045 26.0982 5.76547C28.6894 9.50428 30.0183 14.8868 30.0183 21.7C30.0183 22.5593 29.9974 23.3968 29.9556 24.212L44.4056 0.671667H56.7736V23.1983H61.3203V33.17H56.7736V43.0383H45.5619V33.17H29.2869V29.7398C28.6439 32.9329 27.5806 35.641 26.112 37.8145ZM47.6286 31.1033V40.9717H54.7069V31.1033H59.2536V25.265H54.7069V2.73833H45.5619L31.3536 25.885V31.1033H47.6286ZM47.6286 17.4633C47.6286 16.5536 47.6632 15.436 47.7113 14.2772C47.7487 13.3746 47.7942 12.4471 47.8377 11.5733C47.843 11.4676 47.8483 11.3627 47.8535 11.2587C47.8829 10.6683 47.9109 10.1079 47.9342 9.60275C47.9357 9.57049 47.9371 9.53846 47.9386 9.50667H47.7319C47.0668 10.9069 46.378 12.3309 45.6654 13.7465C45.3263 14.4202 44.9818 15.0919 44.6319 15.7583L38.7419 25.265H47.6286V17.4633ZM45.5619 23.1983V18.1813L42.4535 23.1983H45.5619ZM13.904 33.3639C14.2155 33.5774 14.5713 33.6867 15.035 33.6867C15.4984 33.6867 15.8482 33.5776 16.1524 33.3677C16.4731 33.1464 16.876 32.7199 17.2723 31.8772C18.0945 30.1288 18.7033 26.9889 18.7033 21.7C18.7033 16.4335 18.0932 13.3706 17.2817 11.691C16.8931 10.8868 16.5001 10.4878 16.1867 10.2807C15.8845 10.081 15.5243 9.97167 15.035 9.97167C14.5455 9.97167 14.1793 10.0812 13.8697 10.2843C13.5496 10.4944 13.1512 10.8966 12.758 11.7002C11.9373 13.3776 11.315 16.4378 11.315 21.7C11.315 26.9847 11.936 30.1219 12.7676 31.8681C13.1685 32.7101 13.5767 33.1396 13.904 33.3639ZM27.9517 21.7C27.9517 34.9267 22.785 41.695 15.035 41.695C7.23333 41.695 2.06667 34.9267 2.06667 21.7C2.06667 8.525 7.23333 2.06667 15.035 2.06667C22.785 2.06667 27.9517 8.525 27.9517 21.7ZM9.24833 21.7C9.24833 32.4467 11.7283 35.7533 15.035 35.7533C18.3417 35.7533 20.77 32.4467 20.77 21.7C20.77 11.005 18.3417 7.905 15.035 7.905C11.7283 7.905 9.24833 11.005 9.24833 21.7Z" fill="white"/>
</svg>
