<svg width="60" height="44" viewBox="0 0 60 44" fill="none" xmlns="http://www.w3.org/2000/svg">
<path fill-rule="evenodd" clip-rule="evenodd" d="M26.112 37.8145C23.4716 41.7224 19.6041 43.7617 15.035 43.7617C10.4449 43.7617 6.5636 41.7266 3.91432 37.8168C1.32897 34.0014 0 28.5391 0 21.7C0 14.8871 1.32879 9.50308 3.92819 5.7632C6.5949 1.92649 10.4815 0 15.035 0C19.5675 0 23.4402 1.93045 26.0982 5.76547C28.6894 9.50428 30.0183 14.8868 30.0183 21.7C30.0183 28.5394 28.6893 34.0002 26.112 37.8145ZM13.904 33.3639C14.2155 33.5774 14.5713 33.6867 15.035 33.6867C15.4984 33.6867 15.8482 33.5776 16.1524 33.3677C16.4731 33.1464 16.876 32.7199 17.2723 31.8772C18.0945 30.1288 18.7033 26.9889 18.7033 21.7C18.7033 16.4335 18.0932 13.3706 17.2817 11.691C16.8931 10.8868 16.5001 10.4878 16.1867 10.2807C15.8845 10.081 15.5243 9.97167 15.035 9.97167C14.5455 9.97167 14.1793 10.0812 13.8697 10.2843C13.5496 10.4944 13.1512 10.8966 12.758 11.7002C11.9373 13.3776 11.315 16.4378 11.315 21.7C11.315 26.9847 11.936 30.1219 12.7676 31.8681C13.1685 32.7101 13.5767 33.1396 13.904 33.3639ZM34.6086 21.2867L35.6936 2.73833H56.1536V9.09333H42.2553L41.5319 17.205C42.2608 16.8782 42.9531 16.6249 43.674 16.4508C44.4351 16.267 45.2282 16.1717 46.1303 16.1717C52.5369 16.1717 57.9103 19.9433 57.9103 28.3133C57.9103 36.7867 51.5553 41.695 44.5286 41.695C38.4836 41.695 34.4536 39.3183 31.5603 36.4767L35.1253 31.6717C35.6092 32.1556 36.1254 32.6206 36.6759 33.0501C38.5351 34.5009 40.7845 35.5467 43.4953 35.5467C47.5253 35.5467 50.2636 33.015 50.2636 28.4683C50.2636 24.025 47.6803 21.545 43.8569 21.545C41.5836 21.545 40.3436 22.1133 38.1219 23.56L34.6086 21.2867ZM43.8659 14.2993C44.5714 14.1722 45.3155 14.105 46.1303 14.105C49.7243 14.105 53.2159 15.1651 55.8283 17.5887C58.4694 20.0388 59.9769 23.6649 59.9769 28.3133C59.9769 38.0734 52.5457 43.7617 44.5286 43.7617C37.8504 43.7617 33.3213 41.103 30.1121 37.9511L28.8284 36.6903L34.8928 28.5165L36.5866 30.2103C38.4935 32.1172 40.737 33.48 43.4953 33.48C45.0738 33.48 46.1957 32.9927 46.9214 32.2591C47.6467 31.526 48.1969 30.3235 48.1969 28.4683C48.1969 26.6447 47.6731 25.4724 47.0002 24.7686C46.335 24.0728 45.312 23.6117 43.8569 23.6117C42.9139 23.6117 42.2863 23.7264 41.6878 23.948C41.0439 24.1865 40.339 24.5825 39.2497 25.2919L38.1255 26.0239L32.4752 22.3678L33.7443 0.671667H58.2203V11.16H44.1458L43.8659 14.2993ZM27.9517 21.7C27.9517 34.9267 22.785 41.695 15.035 41.695C7.23333 41.695 2.06667 34.9267 2.06667 21.7C2.06667 8.525 7.23333 2.06667 15.035 2.06667C22.785 2.06667 27.9517 8.525 27.9517 21.7ZM9.24833 21.7C9.24833 32.4467 11.7283 35.7533 15.035 35.7533C18.3417 35.7533 20.77 32.4467 20.77 21.7C20.77 11.005 18.3417 7.905 15.035 7.905C11.7283 7.905 9.24833 11.005 9.24833 21.7Z" fill="white"/>
</svg>
