<svg width="32" height="29" viewBox="0 0 32 29" fill="none" xmlns="http://www.w3.org/2000/svg">
<path d="M0.361938 28H9.86594C15.6979 28 20.1619 25.516 20.1619 20.152C20.1619 16.588 18.0379 14.536 15.1939 13.852V13.708C17.4619 12.88 18.7939 10.396 18.7939 7.948C18.7939 2.98 14.6179 1.36 9.14594 1.36H0.361938V28ZM5.68994 12.196V5.464H8.85794C12.0619 5.464 13.6099 6.364 13.6099 8.704C13.6099 10.864 12.1699 12.196 8.78594 12.196H5.68994ZM5.68994 23.896V16.156H9.39794C13.0699 16.156 14.9779 17.272 14.9779 19.864C14.9779 22.6 12.9979 23.896 9.39794 23.896H5.68994ZM26.5218 18.928H29.9778L30.7338 5.644L30.8778 0.639998H25.5858L25.7298 5.644L26.5218 18.928ZM28.2138 28.504C30.1218 28.504 31.5258 27.028 31.5258 25.048C31.5258 23.068 30.1218 21.628 28.2138 21.628C26.3418 21.628 24.9378 23.068 24.9378 25.048C24.9378 27.028 26.3418 28.504 28.2138 28.504Z" fill="#2D9CDB"/>
</svg>
