<svg width="773" height="59" viewBox="0 0 773 59" fill="none" xmlns="http://www.w3.org/2000/svg">
<rect y="32" width="773" height="26" fill="white"/>
<path d="M33.4025 9.23359L34.857 3.48944C36.8957 2.9526 37.5234 2.68418 37.6593 2.14735C37.8496 1.39578 37.3731 1.28841 29.3927 0.536836C29.0456 2.79155 28.8704 3.70417 28.3403 5.79783L27.4703 9.23359H22.0417C20.6986 9.23359 19.7744 9.12622 18.6248 8.80412L18.5543 10.6294C19.4481 10.4146 20.2452 10.3609 21.7563 10.3609H27.1848L25.1593 18.3598H18.6674C17.2124 18.3598 16.0083 18.2524 14.7468 17.9303L14.6627 19.8093C15.9059 19.5408 16.703 19.4872 18.382 19.4872H25.6013L21.1289 37.1491C19.9002 35.5922 19.4733 34.6259 19.0353 32.1565C20.0268 30.0092 20.4801 28.8818 21.5772 25.8755C23.2937 25.285 23.8654 25.0166 23.9741 24.5871C24.0421 24.3187 23.8862 24.0503 23.4657 23.9429C22.918 23.6745 22.5399 23.6208 16.4063 22.8692C16.2327 23.9966 16.124 24.4261 15.9336 25.1776C15.2675 27.8081 13.4588 32.9617 11.9612 36.6659C10.0918 41.1753 8.60139 43.9669 5.65663 48.7447L6.21786 48.9595C11.8321 43.8058 15.131 39.6185 18.2493 33.7133C18.4529 40.4238 21.1285 44.6648 26.5034 46.8658C29.7029 48.1542 33.5947 48.4763 47.1381 48.4763C51.7271 48.4763 54.8187 48.4226 55.8533 48.3153C56.4825 48.2616 56.552 48.2079 57.0054 47.0805C57.3892 46.0069 58.192 44.8258 59.1642 43.8595C59.8582 43.108 60.3315 42.7859 61.502 42.1417L61.6243 41.6585C54.3266 42.4101 45.5434 42.8395 38.2121 42.8395C31.9441 42.8395 28.7646 42.3564 25.928 40.9606L28.7284 29.9018H38.4102C38.69 29.9018 38.9411 29.7944 38.9954 29.5797C39.0226 29.4723 38.9379 29.3649 38.838 29.0965C37.411 27.2176 36.9449 26.6271 35.2805 24.8018C33.404 26.466 32.8203 27.0029 30.9167 28.7744H29.0139L31.3656 19.4872H41.2153C41.4952 19.4872 41.7462 19.3798 41.787 19.2187C41.8142 19.1114 41.799 18.9503 41.6159 18.7893C39.9787 16.8567 39.443 16.3198 37.6531 14.5483C35.8326 16.2125 35.3185 16.6956 33.4979 18.3598H31.0915L33.117 10.3609H43.5823C43.8621 10.3609 44.1131 10.2536 44.1539 10.0925C44.1947 9.93147 44.1659 9.82411 43.9965 9.60937C42.2625 7.83781 41.7268 7.30098 39.8809 5.52942C38.0876 7.08624 37.5039 7.62308 35.753 9.23359H33.4025ZM48.3371 4.40206C47.1059 4.40206 45.9579 4.29469 44.8082 3.97259L44.7242 5.85152C45.7859 5.63678 46.7645 5.52942 48.0517 5.52942H59.5243L56.5336 17.3398H49.1464C46.7 15.7293 45.871 15.2462 43.2023 13.8504C42.6074 16.6419 42.3371 17.9303 41.9157 19.5945L39.9174 27.486C39.5367 28.9892 39.4144 29.4723 38.9522 31.2976L37.9734 35.1628C37.105 38.8133 37.7646 39.0817 47.5583 39.0817C53.8263 39.0817 57.1825 38.8669 58.9838 38.3838C60.5476 37.9543 61.5894 36.9343 61.9292 35.5922C62.1739 34.6259 61.9165 33.8744 61.3265 33.5523C59.7684 32.8544 59.7684 32.8544 59.9179 32.2639C59.9451 32.1565 60.0267 31.8344 60.1082 31.5123L62.7174 22.9766L62.1713 22.9229C58.6781 29.2039 57.1709 31.6197 56.0883 32.8007C55.0889 33.8744 54.2646 34.0354 50.3471 34.0354C50.2352 34.0354 50.0114 34.0354 49.7315 34.0354C48.1222 33.9817 47.0029 33.9817 46.3873 33.9817C44.4285 33.9817 44.2031 33.767 44.5158 32.5323L48.0774 18.4672H56.2482L55.7316 20.5071C55.5005 21.4198 55.7955 21.5808 57.5863 21.5808C60.8323 21.5808 61.7533 21.2587 62.0795 19.9703C63.0279 15.783 63.475 13.7967 64.3178 10.4683L65.147 7.19361C66.862 6.38835 67.4048 6.01257 67.5272 5.52942C67.5816 5.31468 67.4257 5.04626 67.0307 4.61679C65.4526 3.11365 64.9458 2.68418 63.2286 1.28841C61.5032 2.57682 61.0027 3.00628 59.3061 4.40206H48.3371Z" fill="#384459"/>
<path d="M124.126 11.8641C124.518 11.8641 124.825 11.7567 124.865 11.5957C124.893 11.4883 124.821 11.3272 124.694 11.1662C122.791 9.1799 122.199 8.64306 120.185 6.87151C117.501 9.07253 117.501 9.07253 115.401 10.7367H109.861C112.787 9.12622 113.051 8.96516 118.619 5.09995C118.843 5.09995 119.011 5.09995 119.067 5.09995C120.634 5.09995 121.36 4.88521 121.482 4.40206C121.632 3.81154 120.087 3.05997 114.685 0.966307C113.332 3.43575 110.799 7.03256 107.734 10.7367H105.551L107.522 2.9526C109.324 2.46945 109.839 2.20103 109.948 1.77156C110.139 1.01999 109.382 0.912623 102.439 0.483153C102.021 2.57682 101.832 3.54312 101.316 5.5831L100.011 10.7367H95.8696L97.8679 2.84523C99.6555 2.41576 100.171 2.14735 100.294 1.66419C100.362 1.39578 100.192 1.18104 99.8275 1.07368C99.2663 0.85894 98.8322 0.805257 92.7289 0.375787C92.4498 2.36208 92.2746 3.2747 91.6765 5.63678L90.3851 10.7367H77.1216C75.7225 10.7367 74.3641 10.5757 72.9483 10.1999L72.7947 12.1325C73.8988 11.9715 75.2131 11.8641 76.8361 11.8641H86.1261L85.5697 12.2936C86.6049 14.1725 86.8247 15.5146 86.8166 18.1988C86.8093 19.1114 86.8533 19.3798 87.1923 19.8093H77.6783C76.2792 19.8093 75.1872 19.7019 73.7153 19.3261L73.5617 21.2587C75.1407 20.9903 75.9938 20.9366 77.3929 20.9366H92.3353L91.1118 25.7681H79.4713C77.7364 25.7681 76.49 25.6071 74.8927 25.285L74.7391 27.2176C76.3604 27.0029 77.6748 26.8955 79.1858 26.8955H90.8264L89.5213 32.0491H72.7321C71.277 32.0491 70.2409 31.9418 68.5452 31.566L68.3221 33.5523C69.7891 33.2838 71.2154 33.1765 72.4466 33.1765H84.6468C81.659 35.9143 80.0319 37.2564 77.2344 39.2427C72.5301 42.5711 68.2383 44.9332 62.8273 47.2953L62.9999 47.9395C68.9074 46.49 71.8808 45.5774 75.5905 43.9669C80.0533 42.0343 83.2018 40.209 88.4338 36.3438L87.6046 39.6185C87.2919 40.8532 85.8054 46.0606 84.9594 48.9595C84.7283 49.8721 84.9673 50.0331 86.8142 50.0331C90.228 50.0331 91.0099 49.8184 91.2954 48.6911C92.3509 43.8595 92.8403 41.9269 93.4928 39.3501L94.8522 33.9817C97.2728 39.6722 100.095 42.8932 104.828 45.4164C106.865 46.4363 109.769 47.5637 110.497 47.5637C110.944 47.5637 111.014 47.51 111.581 46.5974C113.351 43.8058 114.505 42.7859 116.667 41.9806L116.858 41.229C109.971 40.7996 105.262 39.7259 101.134 37.6859C98.999 36.6122 97.5632 35.4312 95.7837 33.1765H117.218C117.666 33.1765 117.973 33.0691 118.027 32.8544C118.068 32.6933 117.997 32.5323 117.814 32.3712C115.939 30.4923 115.361 29.9018 113.291 28.1302C111.135 29.7944 110.453 30.2776 108.213 32.0491H95.3416L96.6466 26.8955H113.772C114.163 26.8955 114.47 26.7881 114.525 26.5734C114.552 26.466 114.494 26.2513 114.311 26.0902C112.577 24.3187 112.028 23.8355 110.099 22.1713C108.151 23.6745 107.525 24.1576 105.495 25.7681H96.9321L98.1556 20.9366H118.918C119.254 20.9366 119.561 20.8293 119.602 20.6682C119.643 20.5071 119.558 20.3998 119.431 20.2387C117.612 18.3598 116.964 17.823 114.937 16.1051C112.92 17.6619 112.224 18.1988 110.138 19.8093H101.407C103.205 18.8966 103.205 18.8966 108.708 15.7293C108.863 15.783 109.03 15.783 109.086 15.783C110.597 15.783 111.323 15.5683 111.459 15.0314C111.609 14.4409 111.609 14.4409 105.042 11.8641H124.126ZM104.426 11.8641C102.826 14.8704 101.358 16.9103 98.7768 19.8093H89.9345C91.2865 19.1114 92.2859 18.0377 92.5849 16.8567C93.0336 15.0851 91.3027 13.743 86.1261 11.8641H104.426ZM80.4399 1.61051C81.9428 4.29469 82.488 6.11994 82.4631 8.42833C82.4182 9.93147 82.8147 10.5757 83.7661 10.5757C85.3891 10.5757 87.7525 8.5357 88.2011 6.76414C88.7448 4.61679 86.9157 3.22102 80.9964 1.18104L80.4399 1.61051Z" fill="#384459"/>
<path d="M126.287 25.5227C126.663 26.5657 127.027 27.1486 127.67 27.6394C128.354 28.2223 129.676 28.5597 131.083 28.5597C131.307 28.5597 131.634 28.529 132.154 28.4983C129.861 30.8604 127.16 33.1918 125.75 33.9587C124.596 34.6029 124.556 34.6336 124.254 34.9404C124.032 35.1858 123.851 35.5232 123.758 35.8913C123.393 37.3331 123.728 38.4068 124.528 38.4068C125.04 38.4068 125.382 38.1921 126.47 37.1798C129.749 34.0814 132.383 32.5169 134.334 32.5169C135.006 32.5169 135.496 32.8544 135.652 33.3759C135.76 33.9587 135.755 34.3575 135.492 35.5232C132.935 36.9037 131.996 37.4558 131.05 38.1614C129.038 39.6645 127.858 41.1677 127.485 42.6401C127.12 44.0819 127.465 45.2476 128.493 45.9839C129.795 46.9042 131.869 47.303 135.387 47.303C138.265 47.303 140.486 47.1189 141.755 46.7814C142.545 46.5667 143.109 46.1066 143.249 45.5544C143.396 44.9715 143.16 44.3887 142.605 43.9285C142.074 43.4991 141.345 43.223 140.833 43.223C140.545 43.223 140.306 43.2843 139.397 43.5911C137.865 44.0819 135.381 44.4194 133.303 44.4194C130.041 44.4194 128.709 43.7445 129.082 42.272C129.478 40.7075 131.083 39.4191 134.971 37.5785C134.761 38.4068 134.621 38.8363 134.41 39.5418C134.027 40.6769 134.027 40.6769 134.003 40.7689C133.801 41.5665 134.221 42.0573 135.084 42.0573C135.756 42.0573 136.473 41.7505 136.853 41.2597C137.131 40.9223 137.365 40.2474 137.746 38.7442C137.824 38.4375 137.839 38.3761 138.296 36.3208C140.599 35.3085 143.789 34.3268 147.668 33.4066C148.65 33.1918 149.047 32.8851 149.203 32.2715C149.607 30.6764 147.383 28.345 145.496 28.345C145.176 28.345 144.977 28.3756 144.458 28.529C145.477 29.0505 145.937 29.6334 145.782 30.2469C145.712 30.523 145.45 30.7991 144.933 31.0752C144.192 31.4739 142.878 32.1181 141.802 32.5783C139.004 33.7747 139.004 33.7747 138.383 34.0814C138.337 33.2532 138.206 32.8851 137.899 32.4556C137.399 31.7807 136.501 31.4126 135.445 31.4126C134.07 31.4126 132.73 31.7807 130.523 32.793C131.118 32.2102 131.118 32.2102 132.768 30.4923C133.244 30.0015 133.593 29.6334 134.887 28.3143C137.554 27.8848 139.757 27.394 141.903 26.7498C144.152 26.0749 144.813 25.7375 144.976 25.0933C145.178 24.2957 144.166 23.6208 142.759 23.6208C142.407 23.6208 142.096 23.7128 141.786 23.9276C140.481 24.7865 140.154 24.9399 137.067 25.8908C137.908 24.9706 138.678 24.2037 139.337 23.6208C139.822 23.222 140.059 22.9152 140.122 22.6698C140.254 22.1483 139.858 21.6882 139.056 21.3201C138.078 20.8906 136.74 20.6145 135.621 20.6145C134.886 20.6145 134.543 20.7065 133.778 21.0747C135.5 21.4735 136.095 22.0256 135.831 23.0686C135.621 23.8969 134.769 25.3694 133.857 26.443C132.54 26.7191 131.622 26.8111 130.598 26.8111C128.616 26.8111 127.742 26.4737 126.598 25.308L126.287 25.5227Z" fill="#384459"/>
<path d="M165.504 45.47H189.289L188.527 48.4763C188.339 49.4426 188.634 49.6037 190.872 49.6037C192.719 49.6037 194.285 49.3889 194.87 49.0668C195.204 48.8521 195.453 48.53 195.562 48.1005C195.576 48.0468 195.603 47.9395 195.617 47.8858C197.509 38.8669 197.509 38.8669 205.475 7.40834C207.302 6.60309 207.9 6.2273 208.036 5.69047C208.104 5.42205 208.004 5.15363 207.652 4.77785C205.919 3.22102 205.37 2.73787 203.499 1.28841C201.621 2.73787 200.995 3.22102 199.033 4.77785H176.592C173.752 2.9526 172.881 2.41576 169.903 0.912623C168.47 7.67676 167.522 11.8641 165.673 19.1651C162.982 29.7944 159.701 42.088 157.885 48.1542C157.586 49.3353 157.937 49.4963 160.175 49.4963C162.078 49.4963 163.699 49.2816 164.159 49.0132C164.549 48.7984 164.729 48.53 164.879 47.9395L165.504 45.47ZM196.426 17.2861H172.641L175.523 5.9052H199.308L196.426 17.2861ZM196.14 18.4135L193.19 30.0628H169.405L172.355 18.4135H196.14ZM192.905 31.1902L189.574 44.3427H165.789L169.12 31.1902H192.905Z" fill="#384459"/>
<path d="M229.647 12.5083L231.863 3.75785C233.72 3.2747 234.543 2.89892 234.665 2.41577C234.855 1.66419 233.902 1.44946 226.482 0.697888C226.162 2.84523 225.771 4.83153 225.064 7.62308L223.827 12.5083H220.357C218.902 12.5083 217.978 12.4009 216.506 12.0251L216.422 13.9041C217.763 13.6893 218.56 13.6356 220.071 13.6356H223.541L220.618 25.1776C217.057 25.9829 214.667 26.3587 212.583 26.4123C212.71 32.3175 212.903 33.767 213.575 33.767C214.078 33.767 214.521 33.1228 215.097 31.5123C217.999 30.4386 217.999 30.4386 219.436 29.8481L216.214 42.5711C216.051 43.2153 215.842 43.3764 215.171 43.3764C212.666 43.3227 211.784 43.269 208.102 43.0006L207.883 43.6448C210.674 44.5574 211.517 44.9869 212.097 45.7921C212.647 46.49 212.767 47.5637 212.568 49.0132C212.42 49.8184 212.449 49.9258 213.064 49.9258C213.4 49.9258 213.918 49.8721 214.435 49.8184C217.062 49.3889 218.945 48.5837 220.07 47.4563C220.876 46.7048 221.22 46.0069 221.766 44.0743C222.864 39.2964 222.864 39.2964 223.203 37.9543L224.685 32.1028L226.06 26.8955C230.27 24.8555 231.51 24.1576 234.742 22.225L234.667 21.6345C229.028 23.3524 229.028 23.3524 226.835 23.8355L229.417 13.6356H236.525C236.973 13.6356 237.224 13.5283 237.278 13.3135C237.305 13.2062 237.276 13.0988 237.163 12.8841C235.961 11.2199 235.58 10.7367 234.197 9.12622C232.376 10.7904 232.376 10.7904 230.486 12.5083H229.647ZM245.7 3.70417C247.514 3.16733 248.03 2.89892 248.152 2.41577C248.302 1.82525 247.53 1.55683 244.254 1.23472C243.442 1.12736 242.084 0.966305 240.333 0.805256C240 3.00628 239.811 3.97259 239.268 6.11993L236.304 17.823C235.855 19.5945 236.099 20.3998 237.306 20.9366C238.303 21.4198 239.745 21.4735 248.755 21.4735C258.157 21.4735 261.332 21.3124 263.23 20.6682C264.514 20.2387 265.333 19.4335 265.646 18.1988C265.891 17.2324 265.635 16.6956 264.54 16.1588C263.95 15.8367 263.794 15.5683 263.943 14.9777C263.97 14.8704 264.025 14.6556 264.093 14.3872L265.871 8.91148L265.395 8.80412C262.778 12.5083 261.96 13.5283 260.864 14.763C259.532 16.2661 259.197 16.4809 257.478 16.6419C256.681 16.6956 251.561 16.803 248.147 16.803C244.453 16.803 243.18 16.7493 242.842 16.5346C242.534 16.4272 242.546 16.1588 242.75 15.3535L243.701 11.5957C250.27 10.6294 256.807 9.12622 264.191 6.92519C264.934 7.08624 265.592 7.13992 266.208 7.13992C266.767 7.13992 267.283 6.87151 267.365 6.5494C267.514 5.95888 266.473 5.20731 261.44 1.87893C259.2 3.65049 256.413 5.15363 251.253 7.40834C248.617 8.5357 247.194 9.07254 244.082 10.0925L245.7 3.70417ZM228.53 48.7447C228.272 49.7647 228.567 49.9258 230.301 49.9258C234.163 49.9258 234.651 49.7647 235.018 48.3153L235.494 46.4363H248.478L247.934 48.5837C247.732 49.6037 247.915 49.7647 249.762 49.7647C253.12 49.7647 254.041 49.4426 254.367 48.1542C255.681 42.3027 256.089 40.6922 258.971 29.3113C260.936 28.3986 261.271 28.1839 261.366 27.8081C261.434 27.5397 261.334 27.2713 260.981 26.8955C259.446 25.446 258.952 24.9629 257.137 23.5134C255.467 24.8018 254.967 25.2313 253.34 26.5734H241.14C238.693 24.9629 237.864 24.4797 235.126 23.1376C234.49 26.0902 233.921 28.5597 232.562 33.9281C230.971 40.209 230.331 42.5174 228.557 48.6374L228.53 48.7447ZM251.251 35.4849H238.267L240.239 27.7008H253.222L251.251 35.4849ZM250.966 36.6122L248.763 45.309H235.78L237.982 36.6122H250.966Z" fill="#384459"/>
<path d="M277.481 50.1405C283.108 48.6911 285.829 47.6711 288.908 45.8995C294.871 42.4637 298.849 37.3638 300.398 31.2439C301.146 28.2913 301.118 26.4123 300.329 23.7819C300.451 23.2987 300.56 22.8692 300.615 22.6545C301.118 20.6682 302.169 17.1788 303.113 14.3335C305.057 14.1725 306.022 14.1188 307.925 14.1188C311.506 14.1188 313.872 14.2798 316.967 14.6556C318.858 14.9241 319.67 15.0314 320.174 15.0314C321.349 15.0314 322.351 14.3872 322.596 13.4209C322.814 12.562 322.67 12.0251 322.092 11.4346C320.949 10.1999 318.745 9.1799 317.234 9.1799C316.395 9.1799 315.808 9.28727 314.692 9.71674C312.585 10.522 312.124 10.5757 304.182 11.2199C305.019 9.01885 305.253 8.5357 306.46 7.08624C307.098 6.33467 307.305 5.95888 307.441 5.42205C307.753 4.18732 306.963 3.32839 304.958 2.6305C303.092 2.03998 300.991 1.71788 298.865 1.71788C297.074 1.71788 296.292 1.93261 295.067 2.79155C297.546 3.16733 298.769 3.86522 299.365 5.04626C299.89 6.06625 299.735 7.78413 298.814 11.8641C294.9 12.2936 293.18 12.4546 290.86 12.7767C280.545 14.1725 280.545 14.1725 278.866 14.1725C276.347 14.1725 274.745 13.2062 273.68 11.0051C273.403 11.4346 273.279 11.703 273.225 11.9178C272.939 13.0451 273.217 14.6019 273.886 16.1588C274.909 18.3061 276.289 19.4872 277.912 19.4872C278.415 19.4872 279.184 19.3261 279.616 19.1651C284.344 17.0714 290.475 15.6219 298.192 14.763C297.772 16.6419 297.663 17.0714 297.337 18.3598C297.174 19.004 297.065 19.4335 296.684 20.9366C295.308 20.185 294.677 20.024 293.502 20.024C288.857 20.024 284.644 23.6208 283.366 28.6671C282.102 33.6596 284.396 37.4175 288.649 37.4175C289.993 37.4175 291.137 37.0954 292.364 36.4512C290.544 40.1017 288.686 42.3564 285.417 44.8795C282.982 46.7584 280.767 47.9932 277.364 49.4963L277.481 50.1405ZM294.888 27.8081C294.141 30.7607 292.419 32.4786 290.236 32.4786C287.773 32.4786 286.693 30.1165 287.549 26.7344C288.283 23.8355 290.589 21.5808 292.828 21.5808C295.122 21.5808 295.894 23.8355 294.888 27.8081Z" fill="#384459"/>
<path d="M318.474 50.0331C322.575 48.4226 324.388 47.6711 326.521 46.5437C334.034 42.7322 340.583 37.2028 345.653 30.4386C349.962 24.6945 352.415 19.6482 355.287 10.7367C354.131 17.0714 353.819 20.2924 353.881 24.9092C354.003 31.9418 355.36 37.6322 358.038 42.088C359.864 45.0406 363.658 49.0668 364.721 49.0668C365.001 49.0668 365.265 48.9058 365.625 48.369C368.132 44.8795 369.689 43.5911 372.775 42.6785L372.966 42.1417C368.702 40.6385 366.384 39.4038 363.638 36.988C358.878 32.8007 356.403 27.325 355.859 19.9703C355.533 15.5146 355.891 11.0051 356.802 7.40834C356.91 6.97887 357.074 6.33467 357.333 5.52942C359.343 4.88521 359.929 4.56311 360.037 4.13364C360.201 3.48944 359.149 3.22102 355.285 2.79155C354.347 2.73786 352.821 2.57682 350.916 2.36208C350.675 3.75785 350.581 4.34837 350.309 5.42205C349.697 7.83781 348.425 11.7567 347.369 14.6019C344.654 22.0103 341.228 28.0229 336.557 33.8744C331.303 40.4775 326.59 44.5037 318.33 49.4963L318.474 50.0331Z" fill="#384459"/>
<path d="M387.96 46.0452C391.426 45.6158 393.605 45.0943 395.813 44.2046C400.971 42.1493 404.43 38.5909 405.556 34.1428C407.094 28.0689 403.105 23.7435 395.973 23.7435C391.209 23.7435 386.186 25.6454 382.643 28.7744C380.506 30.6457 378.893 32.9771 378.403 34.9097C378.085 36.1674 378.223 37.5172 378.757 38.4375C379.405 39.5418 379.552 39.9713 379.558 40.7075C379.558 41.8426 379.641 42.272 379.78 42.7322C380 43.2537 380.578 43.6218 381.282 43.6218C382.881 43.6218 385.163 41.9346 388.081 38.6215C391.323 34.9097 394.042 30.615 394.663 28.1609C394.966 26.9645 394.824 26.1363 394.023 24.8785C394.646 24.8172 394.902 24.8172 395.318 24.8172C400.818 24.8172 403.352 27.9462 402.024 33.1918C401.223 36.3515 399.485 39.051 396.783 41.2597C394.359 43.2537 391.619 44.6034 387.941 45.6158L387.96 46.0452ZM393.36 24.9706C393.392 24.9706 393.443 25.4 393.445 25.6454C393.471 25.9215 393.402 26.3203 393.317 26.6578C392.975 28.0075 391.371 30.5537 389.042 33.4372C386.008 37.2104 383.252 39.7566 382.197 39.7566C381.11 39.7566 380.574 37.5785 381.11 35.4619C381.762 32.8851 383.638 30.2776 386.38 28.1609C388.678 26.4123 390.63 25.5227 393.36 24.9706Z" fill="#384459"/>
<path d="M412.238 27.3326C412.752 29.8481 413.935 30.8604 416.461 30.8604C417.261 30.8604 417.812 30.8297 418.579 30.707C415.577 35.6153 412.862 39.2657 410.828 41.1063C409.923 41.9039 409.773 42.1186 409.563 42.9469C409.322 43.8979 409.339 45.0943 409.656 45.7385C409.802 46.0452 410.163 46.26 410.547 46.26C411.058 46.26 411.576 45.9839 412.028 45.4624C412.535 44.8488 413.326 43.6218 414.929 40.9529C417.883 36.1061 417.883 36.1061 418.941 34.3268C420.655 31.4739 420.655 31.4739 421.35 30.3696C427.631 28.8051 430.229 27.7621 430.493 26.7191C430.594 26.3203 430.512 26.0136 430.207 25.8295C429.805 25.5227 428.94 25.2773 428.364 25.2773C428.012 25.2773 427.59 25.4307 427.16 25.7375C425.776 26.6578 425.083 26.9952 423.025 27.6701C424.425 25.5534 424.955 24.8479 425.55 24.265C426.217 23.6515 426.273 23.5594 426.366 23.1913C426.506 22.6392 426.11 22.0563 425.339 21.6882C424.32 21.1667 423.023 20.8599 421.872 20.8599C421.008 20.8599 420.769 20.9213 420.108 21.2587C421.093 21.5348 421.462 21.7189 421.761 22.0563C422.115 22.4244 422.207 22.9459 422.059 23.5288C421.787 24.6024 420.977 26.4123 419.881 28.4677C418.46 28.7744 417.11 28.9278 415.927 28.9278C414.328 28.9278 413.509 28.4983 412.604 27.1486L412.238 27.3326ZM425.034 33.3759C427.084 32.7317 429.096 32.3636 430.663 32.3636C430.855 32.3636 431.111 32.3636 431.463 32.3636L427.495 35.2778L427.617 35.5539C428.055 35.3392 428.166 35.2778 428.604 35.0631C429.879 34.4496 429.879 34.4496 430.126 34.3575C431.234 33.8974 432.216 33.6826 433.111 33.6826L434.351 33.7133C435.406 33.7133 436.026 33.2839 436.244 32.4249C436.555 31.1979 435.389 30.3696 433.279 30.3696C430.752 30.3696 427.65 31.3819 424.984 33.0691L425.034 33.3759ZM422.822 38.0694C422.19 39.051 421.844 39.7872 421.611 40.7075C421.183 42.3947 421.49 43.8365 422.456 44.8182C423.528 45.8918 425.747 46.4747 428.817 46.4747C432.111 46.4747 433.706 45.9839 433.978 44.9102C434.094 44.45 434.02 44.1126 433.786 43.7752C433.317 43.1003 432.337 42.5481 431.698 42.5481C431.506 42.5481 431.274 42.5788 431.027 42.6708C429.639 43.1003 428.809 43.223 427.402 43.223C423.628 43.223 422.124 41.9653 422.792 39.3271C422.862 39.051 422.971 38.7442 423.183 38.1614L422.822 38.0694Z" fill="#384459"/>
<path d="M448.088 24.2957C449.235 25.8295 449.402 26.8111 449.166 30.6457C447.097 31.8727 445.785 32.8851 444.524 34.2041C443.294 35.5232 442.323 37.0877 442.004 38.3454C441.802 39.143 441.96 39.9099 442.436 40.5541C443.017 41.2904 443.059 41.5051 442.962 42.5174C442.851 43.7138 443.223 44.266 444.182 44.266C444.982 44.266 445.859 43.9592 447.173 43.1923C448.407 42.4868 449.456 41.7505 450.283 41.0143C451.076 42.3027 451.936 42.9469 452.799 42.9469C453.471 42.9469 454.051 42.5481 454.199 41.9653C454.331 41.4438 454.225 41.1063 453.57 40.1554C453.174 39.5725 453.061 39.3884 452.849 38.8363C455.825 35.922 458.313 32.793 460.873 28.7438C462.393 28.9278 463.284 29.3266 464.065 30.1549C465.226 31.3819 465.519 33.2532 464.952 35.4925C464.346 37.8853 462.971 40.0326 460.938 41.8732C458.547 43.9899 456.213 45.1249 451.626 46.444L451.612 46.7508C455.104 46.4747 457.395 46.0145 459.659 45.1556C464.427 43.3764 467.546 40.2781 468.525 36.4128C469.721 31.6887 466.856 28.0995 461.504 27.6394C462.349 26.1976 462.986 24.8172 463.142 24.2036C463.289 23.6208 463.19 23.13 462.755 22.7005C462.247 22.179 461.253 21.8109 460.39 21.8109C459.59 21.8109 458.928 22.0256 457.55 22.6698L457.544 22.9459C458.007 22.8846 458.199 22.8846 458.487 22.8846C459.606 22.8846 459.937 23.222 459.711 24.1116C459.486 25.0012 459.11 25.9829 458.331 27.6701C455.527 28.0075 453.907 28.4677 451.421 29.572C451.463 26.6271 450.734 25.3387 448.43 24.0809L448.088 24.2957ZM449.156 32.4556C448.951 35.0324 449.03 36.9957 449.421 39.1124C447.808 40.4314 446.279 41.2904 445.48 41.2904C444.712 41.2904 444.279 39.9713 444.597 38.7136C445.18 36.4128 446.597 34.4802 449.156 32.4556ZM451.431 30.9218C453.604 29.664 455.144 29.1425 457.795 28.7744C456.178 31.75 454.232 34.5109 452.067 36.873C451.762 35.6766 451.652 34.8483 451.589 33.836C451.483 31.4739 451.483 31.4739 451.431 30.9218Z" fill="#384459"/>
<path d="M483.898 46.0452C487.365 45.6158 489.544 45.0943 491.752 44.2046C496.909 42.1493 500.368 38.5909 501.495 34.1428C503.033 28.0689 499.043 23.7435 491.912 23.7435C487.147 23.7435 482.124 25.6454 478.582 28.7744C476.445 30.6457 474.831 32.9771 474.342 34.9097C474.023 36.1674 474.161 37.5172 474.696 38.4375C475.344 39.5418 475.491 39.9713 475.496 40.7075C475.496 41.8426 475.58 42.272 475.719 42.7322C475.939 43.2537 476.517 43.6218 477.221 43.6218C478.819 43.6218 481.102 41.9346 484.019 38.6215C487.262 34.9097 489.98 30.615 490.602 28.1609C490.905 26.9645 490.762 26.1363 489.962 24.8785C490.585 24.8172 490.841 24.8172 491.256 24.8172C496.757 24.8172 499.29 27.9462 497.962 33.1918C497.162 36.3515 495.423 39.051 492.721 41.2597C490.297 43.2537 487.557 44.6034 483.879 45.6158L483.898 46.0452ZM489.299 24.9706C489.331 24.9706 489.382 25.4 489.384 25.6454C489.41 25.9215 489.341 26.3203 489.255 26.6578C488.914 28.0075 487.309 30.5537 484.98 33.4372C481.946 37.2104 479.191 39.7566 478.135 39.7566C477.048 39.7566 476.512 37.5785 477.048 35.4619C477.701 32.8851 479.576 30.2776 482.319 28.1609C484.616 26.4123 486.569 25.5227 489.299 24.9706Z" fill="#384459"/>
<path d="M536.458 26.305C535.619 26.305 534.652 26.1439 533.727 25.8218L533.503 27.8081C534.536 27.486 535.054 27.4323 536.173 27.4323H536.397C536.594 33.2839 537.245 36.2365 539.075 39.6185C535.27 43.3764 532.57 45.4164 527.96 48.1542C529.122 42.6785 529.76 39.9406 530.766 35.968L534.422 21.5271H560.725C561.005 21.5271 561.2 21.4198 561.241 21.2587C561.268 21.1513 561.197 20.9903 561.07 20.8293C559.194 18.7356 558.56 18.1451 556.39 16.1051C554.18 17.984 553.484 18.5209 551.161 20.3998H513.553C512.434 20.3998 511.244 20.2387 510.038 19.9166L509.927 21.9029C511.17 21.6345 511.981 21.5271 513.268 21.5271H515.115L510.221 40.8532C508.389 41.0143 507.648 41.068 506.641 41.068C506.249 41.068 505.633 41.068 504.864 41.0143C505.067 47.7247 505.143 48.53 505.815 48.53C506.374 48.53 506.873 47.8858 507.449 46.2753C514.301 43.9669 520.023 41.9269 523.97 40.2627C523.452 42.088 523.452 42.088 521.544 48.9595C521.285 49.9795 521.524 50.1405 523.259 50.1405C526.617 50.1405 527.469 49.8721 527.81 48.7447C533.324 47.0805 536.503 45.5774 540.985 42.4638C542.524 44.3427 544.172 45.7921 546.618 47.4026C547.771 48.1542 549.259 48.9058 549.539 48.9058C549.819 48.9058 550.041 48.6911 550.428 48.0468C550.87 47.1879 551.688 46.1679 552.563 45.3627C553.744 44.2353 554.496 43.6985 556.114 43.0543L556.319 42.4638C550.815 41.6585 548.585 40.9606 545.269 39.028C548.465 36.1291 550.31 33.9281 553.59 29.1502C555.656 28.506 556.298 28.1839 556.42 27.7008C556.474 27.486 556.417 27.2713 556.051 26.9492C554.388 25.3387 553.895 24.8555 552.191 23.4061C550.493 24.5871 549.992 25.0166 548.267 26.305H536.458ZM520.767 21.5271H528.714L527.382 26.7881H519.435L520.767 21.5271ZM519.149 27.9155H527.096L525.778 33.1228H517.831L519.149 27.9155ZM517.545 34.2502H525.492L524.255 39.1354C520.58 39.7259 518.204 40.048 516.036 40.209L517.545 34.2502ZM548.037 27.4323C545.635 31.8344 544.542 33.4986 541.977 36.5585C539.258 34.0354 538.235 31.8881 537.46 27.4323H548.037ZM524.63 15.9977H548.191L547.892 17.1788C547.715 17.8766 548.01 18.0377 549.577 18.0377C552.879 18.0377 553.73 17.7693 554.058 16.6956C555.02 12.4546 555.698 9.55569 556.079 8.05255L556.677 5.69047C558.378 4.93889 558.908 4.61679 559.03 4.13364C559.084 3.91891 558.915 3.70417 558.562 3.32839C556.477 1.39578 556.477 1.39578 554.872 0C553.216 1.23472 552.729 1.61051 551.129 2.84523H528.464C525.894 1.50314 525.093 1.12736 522.469 0C521.984 2.57682 521.795 3.54312 520.939 6.92519C519.947 10.8441 519.333 13.0451 518.173 16.964C517.942 17.8766 518.139 17.984 520.433 17.984C523.567 17.984 524.168 17.823 524.412 16.8567L524.63 15.9977ZM550.012 8.80412H526.451L527.675 3.97259H551.236L550.012 8.80412ZM549.727 9.93147L548.476 14.8704H524.915L526.166 9.93147H549.727Z" fill="#384459"/>
<path d="M597.859 6.60309L598.716 3.22102C600.975 2.25471 601.101 2.20103 601.196 1.82525C601.372 1.12736 600.013 0.751571 596.653 0.536836C595.771 0.483153 594.455 0.375787 592.705 0.214735C592.467 2.03998 592.319 2.84523 592.088 3.75785L591.367 6.60309H574.354C572.955 6.60309 571.807 6.49572 570.167 6.11993L570.112 8.10623C571.342 7.89149 572.95 7.73044 574.125 7.73044H620.295C620.575 7.73044 620.84 7.56939 620.88 7.40834C620.908 7.30098 620.879 7.19361 620.752 7.03256C618.469 4.77785 617.694 4.07996 615.258 1.98629L609.836 6.60309H597.859ZM585.21 12.1325C582.696 10.7904 581.896 10.4146 579.09 9.34095C578.59 11.7567 578.333 12.9914 577.708 15.4609C576.974 18.3598 576.919 18.5745 575.677 22.8155C575.557 23.5134 575.908 23.6745 577.307 23.6745C581.056 23.6745 581.531 23.5671 581.917 22.7082L582.243 21.4198H599.704L599.337 22.8692C599.272 23.5671 599.553 23.7819 600.673 23.7819C602.184 23.7819 604.309 23.5671 604.867 23.3524C605.23 23.245 605.396 23.0303 605.588 22.4934C605.778 21.7419 605.914 21.205 606.009 20.8293C606.429 18.9503 606.783 17.5545 606.81 17.4472C607.163 16.0514 607.218 15.8367 607.53 14.6019C609.05 13.9041 609.663 13.4746 609.771 13.0451C609.826 12.8304 609.712 12.6157 609.444 12.3472C607.727 10.9515 607.151 10.5757 605.337 9.34095C603.764 10.4683 603.277 10.8441 601.776 12.1325H585.21ZM584.309 13.2599H601.77L599.989 20.2924H582.528L584.309 13.2599ZM583.257 31.7807C580.897 30.4923 580.153 30.1165 577.57 29.0428C576.977 32.0491 576.624 33.4449 575.604 37.4712C574.802 40.6385 574.53 41.7122 573.696 44.3427C573.575 45.0406 573.87 45.2016 574.934 45.2016C576.277 45.2016 577.871 45.0942 578.458 44.9869C579.101 44.8795 579.309 44.7185 579.544 44.2353L580.237 41.4974H591.486L591.214 42.5711C591.107 43.2153 591.402 43.3764 592.633 43.3764C594.2 43.3764 595.696 43.2153 596.296 43.0543C596.673 42.8932 596.895 42.6785 597.087 42.1417C597.155 41.8732 597.209 41.6585 597.236 41.5511L598.458 36.5049C598.635 35.807 598.771 35.2701 599.002 34.3575C600.966 33.2302 600.966 33.2302 601.075 32.8007C601.116 32.6396 601.087 32.5323 600.862 32.3175C599.326 30.8681 598.819 30.4386 597.102 29.0428L593.442 31.7807H583.257ZM582.412 32.9081H593.661L591.771 40.3701H580.522L582.412 32.9081ZM574.078 26.0366C571.506 24.4797 570.677 23.9966 567.841 22.6008C567.288 25.446 566.352 29.3649 564.884 35.1628C563.497 40.6385 562.49 44.3964 561.153 49.0132C561.005 49.8184 561.286 50.0331 562.405 50.0331C566.659 50.0331 567.315 49.8721 567.641 48.5837L570.236 38.1154L573.009 27.1639H606.084L601.911 43.6448C601.761 44.2353 601.539 44.45 601.064 44.5574C596.516 44.3964 596.236 44.3964 594.206 44.2353L593.987 44.8795C596.748 45.47 597.548 45.8458 598.017 46.8658C598.246 47.51 598.294 48.4226 598.135 49.4963C598.012 49.9795 598.153 50.0868 598.601 50.0868C600.615 50.0868 603.019 49.6574 604.455 49.0668C606.324 48.3153 607.032 47.51 607.605 45.47C608.176 43.2153 608.176 43.2153 608.459 41.8732C609.355 38.1154 609.477 37.6322 609.763 36.5049L611.707 28.8281C613.715 27.9692 614.245 27.6471 614.38 27.1102C614.421 26.9492 614.364 26.7344 614.082 26.5197C612.307 24.9092 611.702 24.4261 609.746 22.8692C607.994 24.265 607.437 24.6945 605.81 26.0366H574.078Z" fill="#384459"/>
<path d="M627.806 46.0452C631.273 45.6158 633.451 45.0943 635.659 44.2046C640.817 42.1493 644.276 38.5909 645.403 34.1428C646.941 28.0689 642.951 23.7435 635.82 23.7435C631.055 23.7435 626.032 25.6454 622.49 28.7744C620.353 30.6457 618.739 32.9771 618.25 34.9097C617.931 36.1674 618.069 37.5172 618.604 38.4375C619.251 39.5418 619.398 39.9713 619.404 40.7075C619.404 41.8426 619.487 42.272 619.627 42.7322C619.846 43.2537 620.425 43.6218 621.128 43.6218C622.727 43.6218 625.009 41.9346 627.927 38.6215C631.169 34.9097 633.888 30.615 634.509 28.1609C634.812 26.9645 634.67 26.1363 633.869 24.8785C634.493 24.8172 634.748 24.8172 635.164 24.8172C640.665 24.8172 643.198 27.9462 641.87 33.1918C641.07 36.3515 639.331 39.051 636.629 41.2597C634.205 43.2537 631.465 44.6034 627.787 45.6158L627.806 46.0452ZM633.207 24.9706C633.239 24.9706 633.29 25.4 633.291 25.6454C633.318 25.9215 633.248 26.3203 633.163 26.6578C632.821 28.0075 631.217 30.5537 628.888 33.4372C625.854 37.2104 623.098 39.7566 622.043 39.7566C620.956 39.7566 620.42 37.5785 620.956 35.4619C621.609 32.8851 623.484 30.2776 626.227 28.1609C628.524 26.4123 630.476 25.5227 633.207 24.9706Z" fill="#384459"/>
<path d="M681.57 3.65049C679.349 2.25471 678.605 1.87893 676.175 0.644205C675.674 2.84523 675.483 3.5968 675.021 5.42205L674.908 5.20731C673.313 3.32839 672.833 2.79155 671.141 1.07368C669.334 2.68418 668.807 3.22102 667.112 4.83153H660.62C659.445 4.83153 658.576 4.72416 657.259 4.40206L657.146 6.17362C658.418 6.01257 658.991 5.95888 660.334 5.95888H662.573L659.12 19.5945H657.329C656.098 19.5945 655.398 19.4872 654.024 19.1651L653.911 20.9366C655.295 20.7756 655.98 20.7219 657.1 20.7219H658.835L655.151 35.2701C651.659 36.0217 650.96 36.1291 648.835 36.3438C649.133 42.6785 649.353 44.0206 649.969 44.0206C650.472 44.0206 650.859 43.3764 651.476 41.6048C661.08 36.827 663.881 35.2701 668.336 32.2639L668.15 31.6733C665.443 32.6396 664.41 32.9618 661.352 33.767L664.655 20.7219H670.587C670.923 20.7219 671.118 20.6145 671.159 20.4535C671.186 20.3461 671.171 20.185 671.086 20.0777C670.081 18.5209 669.756 18.0377 668.556 16.5882C667.153 17.9303 666.778 18.3061 665.388 19.5945H664.94L668.393 5.95888H674.27L674.926 5.79783C673.947 9.66305 673.947 9.66305 672.408 15.2998L672.381 15.4072C672.15 16.3198 672.516 16.6419 673.803 16.6419C675.202 16.6419 676.866 16.4809 677.48 16.2661C677.856 16.1051 678.023 15.8904 678.215 15.3535L678.378 14.7093H697.797L697.661 15.2462C697.541 15.944 697.878 16.1588 699.165 16.1588C699.445 16.1588 699.893 16.1588 700.41 16.1051C699.45 16.803 698.824 17.2861 697.307 18.4135H675.201C673.802 18.4135 672.766 18.3061 671.56 17.984L671.503 19.7556C672.831 19.5945 673.516 19.5408 674.916 19.5408H705.192C705.528 19.5408 705.723 19.4335 705.764 19.2724C705.791 19.1651 705.762 19.0577 705.649 18.843C704.184 17.5545 704.184 17.5545 702.367 15.8904C703.317 15.6756 703.595 15.4609 703.799 14.6556C704.652 10.8441 704.936 9.502 705.793 6.11993C707.368 5.42205 707.842 5.09995 707.95 4.67048C708.032 4.34838 707.876 4.07996 707.425 3.65049C705.918 2.3084 705.398 1.93261 703.765 0.644205C702.152 1.93261 701.665 2.3084 700.038 3.65049H681.57ZM698.083 13.582H694.781L697.01 4.77785H700.312L698.083 13.582ZM689.968 13.582H686.666L688.895 4.77785H692.197L689.968 13.582ZM681.853 13.582H678.663L680.893 4.77785H684.082L681.853 13.582ZM693.984 23.1376H678.146C675.815 21.9566 675.057 21.6345 672.503 20.6682C672.043 22.7082 671.854 23.6745 671.419 25.3924C670.984 27.1102 670.507 28.7744 669.375 32.8007L669.362 32.8544C669.158 33.6596 669.426 33.9281 670.601 33.9281C672.504 33.9281 673.944 33.767 674.502 33.5523C674.809 33.4449 675.044 33.1765 675.223 32.6933L675.427 31.8881H679.008C675.742 34.8407 673.586 36.5049 669.73 39.1354C664.607 42.5711 660.761 44.7185 654.877 47.4026L655.021 47.9395C659.531 46.7048 662.35 45.7385 666.046 44.1816C671.318 41.9269 674.564 40.1554 678.488 37.2564L677.345 41.5511C676.623 44.1816 676.2 45.6311 675.204 49.1205C675.177 49.2279 675.15 49.3353 675.136 49.3889C674.96 50.0868 675.326 50.4089 676.389 50.4089C676.389 50.4089 676.501 50.4089 676.613 50.4089C676.725 50.4089 676.949 50.4089 677.173 50.4089C678.74 50.4089 680.137 50.1942 680.639 49.9795C680.904 49.8184 681.07 49.6037 681.248 49.1205C682.156 45.0943 682.156 45.0943 683.283 40.4238L685.059 32.747C686.394 39.1891 688.479 43.108 692.268 46.49C693.494 47.6174 694.646 48.369 695.15 48.369C695.374 48.369 695.569 48.2616 695.762 47.9395C697.463 45.2016 698.714 44.0206 701.098 43.0006L701.277 42.5174C696.837 41.9269 693.09 40.3701 690.402 38.1691C693.127 37.7933 694.608 37.4712 697.89 36.6659C698.8 36.827 699.389 36.9343 699.668 36.9343C700.116 36.9343 700.506 36.7196 700.588 36.3975C700.683 36.0217 700.641 35.968 696.533 32.9617C697.483 32.747 697.831 32.4786 698.007 31.7807C698.794 28.4523 699.268 26.3587 699.5 25.446C701.035 24.9092 701.508 24.5871 701.617 24.1576C701.671 23.9429 701.571 23.6745 701.149 23.3524C699.671 22.1177 699.206 21.7419 697.574 20.4535L693.984 23.1376ZM692.216 31.8881L692.189 31.9954C692.162 32.1028 692.148 32.1565 692.134 32.2102C691.958 32.9081 692.281 33.1765 693.345 33.1765L694.142 33.1228C694.31 33.1228 694.366 33.1228 694.646 33.1228C692.951 34.7333 691.768 35.6459 689.303 37.2028C687.484 35.3238 686.691 34.0354 685.948 31.8881H692.216ZM692.501 30.7607H675.712L677.357 24.265H694.146L692.501 30.7607Z" fill="#384459"/>
<path d="M750.322 7.51571C749.027 10.1999 747.423 12.7767 745.234 15.6756H738.35C739.772 14.9241 740.854 13.743 741.126 12.6693C741.589 10.8441 740.236 9.55569 735.66 7.51571L734.991 7.94518C735.493 9.502 735.653 10.4146 735.566 11.8641C735.351 14.9241 735.351 14.9241 735.664 15.6756H728.948C727.789 14.0651 727.633 13.7967 726.377 12.3472L722.848 15.6756H722.289L725.211 4.13364C727.055 3.70417 727.822 3.32839 727.958 2.79155C728.121 2.14735 727.392 1.93261 723.71 1.66419C722.828 1.61051 721.456 1.50314 719.706 1.34209C719.128 4.50943 718.776 6.11994 718.042 9.01885L716.356 15.6756H713.055C712.047 15.6756 711.081 15.5146 709.973 15.2462L709.777 17.1251C710.895 16.9103 711.818 16.803 712.769 16.803H716.071L711.802 33.6596C708.98 34.1965 707.751 34.4112 705.346 34.6259C705.867 42.7322 705.867 42.7322 706.539 42.7322C707.099 42.7322 707.458 42.1953 708.087 40.1554C714.124 37.3101 720.019 34.1428 725.493 30.8681L725.363 30.2776C721.859 31.2976 720.602 31.6197 718.102 32.2102L722.003 16.803H762.185C762.521 16.803 762.772 16.6956 762.813 16.5346C762.84 16.4272 762.825 16.2661 762.642 16.1051C760.906 14.1188 760.328 13.5283 758.259 11.7567C755.853 13.743 755.853 13.743 753.461 15.6756H747.64C750.399 14.0651 751.832 13.0451 754.643 11.0051C756.517 10.8978 757.062 10.7367 757.184 10.2536C757.334 9.66305 756.477 9.28727 751.609 7.51571H763.418C763.866 7.51571 764.061 7.40834 764.101 7.24729C764.129 7.13992 764.114 6.97887 763.93 6.81782C762.083 4.83153 761.435 4.29469 759.267 2.46945C757.279 4.13364 756.653 4.61679 754.581 6.38835H748.425L749.241 3.16733C751.28 2.6305 751.977 2.3084 752.099 1.82525C752.14 1.66419 752.04 1.39578 751.899 1.28841C751.267 0.912623 751.113 0.85894 743.749 0.322104C743.413 2.09366 743.251 2.9526 742.911 4.29469L742.381 6.38835H733.539C732.364 6.38835 731.383 6.28099 730.01 5.95888L729.87 7.83781C730.987 7.62308 732.022 7.51571 733.253 7.51571H750.322ZM730.723 34.3038H739.565L738.179 39.7796C737.458 42.6248 737.458 42.6248 736.738 45.47L736.697 45.6311C735.922 48.6911 736.821 49.1205 743.649 49.1205C747.902 49.1205 751.202 48.9058 752.654 48.4763C753.98 48.1005 755.092 47.0269 755.418 45.7385C755.69 44.6648 755.376 43.9132 754.393 43.3764C753.859 43.0543 753.732 42.8932 753.854 42.4101C753.868 42.3564 753.963 41.9806 754.155 41.4438L756.439 34.4112L755.851 34.3038C751.912 40.7996 751.012 42.1417 750.179 43.0006C749.416 43.8058 748.634 44.0206 746.507 44.0206C743.037 44.0206 743.037 44.0206 743.336 42.8395L745.498 34.3038H746.617L746.386 35.2165C746.265 35.9143 746.363 35.968 747.93 35.968C750.449 35.968 751.734 35.7533 752.179 35.3238C752.332 35.1628 752.442 34.948 752.551 34.5186C753.416 30.4386 753.742 29.1502 755.387 22.6545C756.893 22.0103 757.297 21.7419 757.406 21.3124C757.487 20.9903 757.36 20.8292 756.909 20.3998C755.362 19.2187 754.897 18.843 753.238 17.6619C751.763 18.843 751.276 19.2187 749.663 20.5071H734.832C732.388 19.1114 731.587 18.7356 728.976 17.5545C728.504 19.8629 728.179 21.3661 727.513 23.9966C726.221 29.0965 725.608 31.2976 724.49 35.2701C724.232 36.2901 724.527 36.4512 726.43 36.4512C727.997 36.4512 728.626 36.3975 729.576 36.1828C728.311 39.1891 726.675 41.229 724.018 43.3227C720.679 45.8995 716.635 47.7247 710.185 49.55L710.12 50.2479C716.887 49.6037 720.142 48.9058 724.159 47.1879C729.11 45.0943 732.169 42.5174 735.199 37.847C736.93 37.4175 737.307 37.2564 737.429 36.7733C737.592 36.1291 737.326 36.0754 730.519 35.1091L730.723 34.3038ZM748.534 26.7344H732.64L733.931 21.6345H749.825L748.534 26.7344ZM748.248 27.8618L746.902 33.1765H731.009L732.354 27.8618H748.248Z" fill="#384459"/>
</svg>
