<svg xmlns="http://www.w3.org/2000/svg" viewBox="0 0 300 105"><defs><style>.cls-1{fill:#30b8bb;}.cls-2{fill:#97d3d3;}.cls-3{fill:#3e3a39;}</style></defs><g id="レイヤー_2" data-name="レイヤー 2"><g id="レイヤー_1-2" data-name="レイヤー 1"><path class="cls-1" d="M0,52.88A52.25,52.25,0,0,0,10,83.3L19.4,61.37A111.43,111.43,0,0,1,0,52.88Z"/><path class="cls-2" d="M83.72,23.09c-2.33,7.42-8.13,6.9-11.52,6.4s-3-6.17-3-6.17h0c.18-3.67-.56-7.84-4.55-8.78C54.87,12.24,47.31,30,47.31,30L37.12,53.92c21.59,4.16,44.3,2.07,67.64-6.22A52.47,52.47,0,0,0,82.59,9.49C84.38,13.83,84.31,18.92,83.72,23.09Z"/><path class="cls-1" d="M59,67.6a129,129,0,0,1-26.53-2.72l-12.32,29a52.48,52.48,0,0,0,84.29-33.68A146.73,146.73,0,0,1,59,67.6Z"/><path class="cls-2" d="M24,50.59,33.73,28S42.72,4.56,60.86.67A53.61,53.61,0,0,0,52.49,0a52.51,52.51,0,0,0-51,40.14A95.23,95.23,0,0,0,24,50.59Z"/><path class="cls-3" d="M224,75a.73.73,0,0,1-.52-.22.74.74,0,0,1,0-1,.71.71,0,0,1,.52-.2h9.39a.82.82,0,0,1,.58.24.7.7,0,0,1,.24.58q-.1,4.45-2.24,6.84a10.26,10.26,0,0,1-6.45,3,.76.76,0,0,1-.55-.14.69.69,0,0,1-.3-.48.61.61,0,0,1,.12-.52.7.7,0,0,1,.47-.28,9,9,0,0,0,5.33-2.32,8.23,8.23,0,0,0,2-5.33c0-.08,0-.11-.12-.11Z"/><path class="cls-3" d="M241.8,83.84a.62.62,0,0,1-.46-.18.59.59,0,0,1-.19-.46.6.6,0,0,1,.19-.46.59.59,0,0,1,.46-.19H247c.08,0,.13,0,.13-.12l.37-5.3c0-.08,0-.11-.11-.11H243a.64.64,0,0,1-.46-.19.63.63,0,0,1-.19-.47.57.57,0,0,1,.19-.45.63.63,0,0,1,.46-.18h5.3a.77.77,0,0,1,.56.23.76.76,0,0,1,.21.58l-.38,5.89a.11.11,0,0,0,.12.12h1.48a.59.59,0,0,1,.46.19.6.6,0,0,1,.19.46.59.59,0,0,1-.19.46.62.62,0,0,1-.46.18Z"/><path class="cls-3" d="M258.24,79.38a.67.67,0,0,1-.53-.23.66.66,0,0,1-.22-.52.7.7,0,0,1,.22-.54.73.73,0,0,1,.53-.22h10.38a.73.73,0,0,1,.53.22.7.7,0,0,1,.22.54.66.66,0,0,1-.22.52.67.67,0,0,1-.53.23Z"/><path class="cls-3" d="M278.12,84.48a.8.8,0,0,1-1.12,0,.78.78,0,0,1-.24-.57V73.62a.74.74,0,0,1,.24-.56.8.8,0,0,1,1.12,0,.73.73,0,0,1,.23.56v3.24a.13.13,0,0,0,.11.14q3.62.89,7.19,2.15a.74.74,0,0,1,.42.41.69.69,0,0,1,0,.58.7.7,0,0,1-.38.43.67.67,0,0,1-.57,0c-2.22-.8-4.45-1.47-6.69-2q-.12,0-.12.09v5.26A.77.77,0,0,1,278.12,84.48Zm3.76-11.08a.73.73,0,0,1,.56-.05.79.79,0,0,1,.44.35l.74,1.32a.6.6,0,0,1,0,.54.66.66,0,0,1-.36.41.69.69,0,0,1-.56,0,.74.74,0,0,1-.42-.36s-.11-.2-.3-.54-.32-.58-.41-.75a.68.68,0,0,1,.27-.95Zm1.89-.17a.7.7,0,0,1,.36-.43.71.71,0,0,1,.57-.06.72.72,0,0,1,.44.36c.43.78.68,1.22.74,1.32a.71.71,0,0,1,.06.55.62.62,0,0,1-.37.42.78.78,0,0,1-.56,0,.69.69,0,0,1-.43-.37l-.75-1.3A.72.72,0,0,1,283.77,73.23Z"/><path class="cls-3" d="M299.89,17.31a2.54,2.54,0,0,0-1.5-1.56,3.12,3.12,0,0,0-1.26-.25,3.45,3.45,0,0,0-2.66,1.24,120.92,120.92,0,0,0-14.73,26.35,13.69,13.69,0,0,0-1.9-.13,13.83,13.83,0,0,0-4.74.83,14.23,14.23,0,0,0-4.9,3.11l-.32.31c-1.15,1.06-4.18.76-4.7-2.38a2.77,2.77,0,0,0-2.93-2.13,3.22,3.22,0,0,0-3,2C255.74,49,251.13,58,246.46,58.39c-.34-1.44,1.25-7,4.56-13a2.32,2.32,0,0,0,.1-2.14,2.72,2.72,0,0,0-1.78-1.42,3.58,3.58,0,0,0-.87-.11,3.28,3.28,0,0,0-2.88,1.58l-.57,1c-3.57,7.08-9.12,14-11.2,14a1.27,1.27,0,0,1-.36,0c-.7-1.23,1.37-7.11,5.08-12.78a2.36,2.36,0,0,0,.24-2.18,2.57,2.57,0,0,0-1.65-1.48,3.3,3.3,0,0,0-1-.17,3.41,3.41,0,0,0-2.79,1.41s-3.16,4.59-6.33,6.54h0c-1,.58-2.08,1.21-3.18,1.93.31-.66.52-1.12.61-1.34,1.28-2.12,2.1-3.72,2.25-4a2.3,2.3,0,0,0,0-2.12,2.73,2.73,0,0,0-1.83-1.37,3.47,3.47,0,0,0-.78-.1,3.32,3.32,0,0,0-2.93,1.68c-.54,1.07-1.16,2.19-1.82,3.33a2.41,2.41,0,0,0-.38.59l0,.09c-4.14,6.83-7.8,10-9,10a1.23,1.23,0,0,1-.35,0c-.7-1.23,1.37-7.11,5.08-12.79a2.37,2.37,0,0,0,.24-2.17,2.57,2.57,0,0,0-1.65-1.48,3.3,3.3,0,0,0-1.05-.17,3.41,3.41,0,0,0-2.79,1.41c-.39.6-.72,1.15-1,1.67a2.65,2.65,0,0,0-.63.52c-1.3,1.4-5.69,2.19-6.15-.53a2.76,2.76,0,0,0-2.92-2.13,3.23,3.23,0,0,0-3,2C194.18,49,189.57,58,184.9,58.39c-.34-1.41,1.14-6.77,4.57-13a2.32,2.32,0,0,0,.08-2.14,2.72,2.72,0,0,0-1.77-1.41,3.58,3.58,0,0,0-.87-.11A3.28,3.28,0,0,0,184,43.34l-.57,1c-3.81,7.55-9.35,14-11.21,14a2,2,0,0,1-.36,0c-.66-1.19,1.24-6.7,4.71-12.19a2.5,2.5,0,0,0,.83-1.18,3,3,0,0,0-.23-2.39,3.41,3.41,0,0,0-2.95-1.83,2.83,2.83,0,0,0-1.19.26,35.22,35.22,0,0,1-12.18,3.29l-.87.06,3.78-11.06c.13-.38,3.27-9.46,8.77-9.46a5.16,5.16,0,0,1,1.16.13c1.52.35,3.36,1.61,3.52,5.63,0,0,.11,2.81,1.58,3a11.26,11.26,0,0,0,1.63.14,3.76,3.76,0,0,0,4.06-3.32c.27-5.1-1-11.41-8.7-12.54a14.43,14.43,0,0,0-2.15-.16c-11.94,0-16.69,15.57-16.75,15.76l-3.84,11.23-.51-.13A22.12,22.12,0,0,1,143.3,39a3.31,3.31,0,0,0-2.27-.94,2.65,2.65,0,0,0-2.7,2.88,3.25,3.25,0,0,0,1,2.17,28.72,28.72,0,0,0,11.23,6l.58.16-2.93,8.57h0c-4.47,13.12-7.61,19.46-9.83,22.32-3.38,4.35-6.31.68-6.74.42-2.85-1.76-2,2.63-1.66,3.34s3.05,7,9.26,4.47c7.22-3,17.24-33.81,17.24-33.81L158,50.37l.69,0c.27,0,.55,0,.83,0a35.78,35.78,0,0,0,8.8-1.16c-2,4.19-3.6,9.23-1.52,12.1.74,1,2.24,2.27,5.16,2.27,2.37,0,4.75-1.12,7.25-3.43a4.58,4.58,0,0,0,.79,1.54,5.32,5.32,0,0,0,4.35,1.89c6.9,0,11.79-6.74,14.36-11.39a6.17,6.17,0,0,0,3.23,1.39,6.8,6.8,0,0,0,.9.06,8.25,8.25,0,0,0,1.38-.13c-1.1,3.46-1,6.08.22,7.8a5.66,5.66,0,0,0,4.44,2.24c-.77.66-1.61,1.28-2.41,2-10.75,9.65-24.49,26-21.66,31.83a3.85,3.85,0,0,0,3.75,2.07,8,8,0,0,0,2.25-.36c2.17-.63,8.77-2.57,22.26-26.5,1.84-3.27,3.66-6.68,5.42-10.16a86.74,86.74,0,0,1,9.12-6.89c-.5,2.48-.24,4.41.75,5.78.74,1,2.23,2.27,5.16,2.27,2.37,0,4.75-1.12,7.25-3.43a4.77,4.77,0,0,0,.79,1.54,5.31,5.31,0,0,0,4.35,1.89c6.55,0,11.28-5.85,14.24-11.17.39,1.41,1.69,2,3.43,1.67-.13.31-.25.63-.37,1a5.19,5.19,0,0,0,1.72,6.37A8.83,8.83,0,0,0,270,62.9a14.41,14.41,0,0,0,6.69-1.72c.49.83,1.6,1.8,4.16,2A11.57,11.57,0,0,0,291,51.74a2.29,2.29,0,0,0-.45-1.76,1.36,1.36,0,0,0-1-.43,2.49,2.49,0,0,0-2.2,1.9c-.94,3.94-3.09,5.62-4.43,5.62-.15,0-.29-.12-.43-.36-1.65-13.4,16.78-36.92,17-37.21A2.37,2.37,0,0,0,299.89,17.31ZM191.23,93c-1.53-.72,9.4-16,14.64-19.49C201.69,82.73,192.67,94.24,191.23,93ZM276.68,53.3c0,.09-.08.17-.11.26a6.4,6.4,0,0,1-4.46,3.84,6.63,6.63,0,0,1-1.8.26,2.41,2.41,0,0,1-1.41-.3s-.22-.16.05-.9a16.32,16.32,0,0,1,3.55-6.05l.13-.12a7.44,7.44,0,0,1,2.58-1.68,6.38,6.38,0,0,1,2.33-.41h.38A43.33,43.33,0,0,0,276.68,53.3Z"/></g></g></svg>