<svg width="34" height="40" viewBox="0 0 34 40" fill="none" xmlns="http://www.w3.org/2000/svg">
<path d="M17.5437 0C6.58075 0 0.750488 7.02532 0.750488 14.6857C0.750488 18.2383 2.73558 22.6685 5.91322 24.0736C6.39574 24.2911 6.65825 24.1986 6.76576 23.7511C6.86076 23.4111 7.27828 21.7735 7.48079 21.0009C7.54329 20.7534 7.51079 20.5384 7.31078 20.3059C6.25574 19.0859 5.4182 16.8633 5.4182 14.7782C5.4182 9.43542 9.66589 4.24769 16.8937 4.24769C23.144 4.24769 27.5167 8.30787 27.5167 14.1156C27.5167 20.6784 24.044 25.2186 19.5313 25.2186C17.0337 25.2186 15.1736 23.2585 15.7637 20.8334C16.4762 17.9458 17.8738 14.8407 17.8738 12.7581C17.8738 10.8905 16.8187 9.34542 14.6636 9.34542C12.121 9.34542 10.0584 11.863 10.0584 15.2432C10.0584 17.3908 10.8184 18.8408 10.8184 18.8408C10.8184 18.8408 8.30333 29.0013 7.83581 30.8989C7.04577 34.1115 7.94331 39.3143 8.02082 39.7618C8.06832 40.0093 8.34583 40.0868 8.50084 39.8843C8.74835 39.5593 11.7885 35.2216 12.641 32.0864C12.951 30.9439 14.2236 26.3112 14.2236 26.3112C15.0611 27.8237 17.4787 29.0913 20.0539 29.0913C27.7142 29.0913 33.2495 22.3585 33.2495 14.0031C33.222 5.99277 26.3666 0 17.5437 0Z" fill="#D32F2F"/>
</svg>
