<svg width="40" height="34" viewBox="0 0 40 34" fill="none" xmlns="http://www.w3.org/2000/svg">
<path d="M40 4.5975C38.5125 5.25 36.9275 5.6825 35.275 5.8925C36.975 4.8775 38.2725 3.2825 38.8825 1.36C37.2975 2.305 35.5475 2.9725 33.6825 3.345C32.1775 1.7425 30.0325 0.75 27.6925 0.75C23.1525 0.75 19.4975 4.435 19.4975 8.9525C19.4975 9.6025 19.5525 10.2275 19.6875 10.8225C12.87 10.49 6.8375 7.2225 2.785 2.245C2.0775 3.4725 1.6625 4.8775 1.6625 6.39C1.6625 9.23 3.125 11.7475 5.305 13.205C3.9875 13.18 2.695 12.7975 1.6 12.195C1.6 12.22 1.6 12.2525 1.6 12.285C1.6 16.27 4.4425 19.58 8.17 20.3425C7.5025 20.525 6.775 20.6125 6.02 20.6125C5.495 20.6125 4.965 20.5825 4.4675 20.4725C5.53 23.72 8.545 26.1075 12.13 26.185C9.34 28.3675 5.7975 29.6825 1.9625 29.6825C1.29 29.6825 0.645 29.6525 0 29.57C3.6325 31.9125 7.9375 33.25 12.58 33.25C27.67 33.25 35.92 20.75 35.92 9.915C35.92 9.5525 35.9075 9.2025 35.89 8.855C37.5175 7.7 38.885 6.2575 40 4.5975Z" fill="#03A9F4"/>
</svg>
